<svg xmlns="http://www.w3.org/2000/svg" viewBox="0 0 75.46 75.14"><defs><style>.cls-1{fill:#fff;}</style></defs><title>자산 6</title><g id="레이어_2" data-name="레이어 2"><g id="레이어_1-2" data-name="레이어 1"><path class="cls-1" d="M75.42,27a18.92,18.92,0,0,0-.08-2c-.2-1.8-.87-3.37-2.92-3.44-2.28-.08-3.18,1.5-3.36,3.53-.1,1.16,0,2.33,0,3.5,0,11,0,22,0,33,0,5.76-1.31,7-7.13,7q-15.73.08-31.48,0c-1,0-2.37.68-2.22-.1,6.86-6.81,13.43-13.9,19.93-21,1.92-2.09,3.56-1.91,5.44.05,2.07,2.16,4.22,4.26,6.47,6.24a3,3,0,0,0,4.31-4.3c-1.69-1.83-3.5-3.56-5.29-5.3C52.7,38,49.51,37.82,43,43.82c-2,1.82-3.09,1.67-4.83-.14-3.23-3.36-6.61-6.58-10-9.72C24,30.24,19.7,30.24,15.6,33.89c-2.73,2.42-5.32,5-9.12,8.58,0-10.47,0-19.56,0-28.65,0-6.43,1.16-7.52,7.67-7.54q22.48,0,45,0c8,0,8,0,9.77,8,.4,1.86,1.35,3.12,3.32,3,1.73-.07,2.48-1.27,2.79-3C76.39,7,71.54.28,64,.17c-17.49-.24-35-.2-52.47,0C5,.19.43,4.4.21,11-.15,22.17.05,33.34.09,44.5A5.41,5.41,0,0,0,3.68,50c2.38.91,4.22-.14,5.86-1.69,3.15-3,6.35-5.9,9.34-9,2.11-2.2,3.8-2.1,5.85,0,2.89,3,5.83,6,9,8.68,2.36,2,1.74,3.24-.22,5-4.66,4.28-9.31,8.6-13.61,13.23-2.92,3.13-6.32,2.77-9.66,2s-3.6-3.87-3.56-6.84c0-2.18-.57-4.14-3.2-4.15s-3,2.13-3.15,4.22C-.18,69.62,4.56,74.85,13.38,75q24.48.36,49,0c8.89-.12,12.92-4.45,13-13.52C75.53,50,75.42,38.47,75.42,27Z"/><path class="cls-1" d="M51.66,14.52A9.63,9.63,0,0,0,42,23.88a9.7,9.7,0,0,0,9.64,9.42,9.69,9.69,0,0,0,9.17-9.38A9.64,9.64,0,0,0,51.66,14.52ZM51.37,27a2.82,2.82,0,0,1-3-2.76,2.91,2.91,0,0,1,2.84-3.4c1.93-.14,3,1.16,3.36,3C54.37,25.74,53.26,26.93,51.37,27Z"/></g></g></svg>