<svg xmlns="http://www.w3.org/2000/svg" viewBox="0 0 75.16 85.66"><defs><style>.cls-1{fill:#fff;}</style></defs><title>자산 7</title><g id="레이어_2" data-name="레이어 2"><g id="레이어_1-2" data-name="레이어 1"><path class="cls-1" d="M34.49,43c0,8.16-.06,16.33,0,24.49,0,3.22-.47,5.79-4.51,5.49-2.77-.21-2.75,1.54-2.81,3.52-.06,2.15.8,3,2.94,2.94,5-.08,10-.09,15,0,2.29,0,2.87-1.1,2.77-3.1-.08-1.69.15-3.46-2.44-3.36-2.28.1-4.79-.14-4.63-3.11.17-3.18,2.89-3,5.3-3.07,6.52,0,8.13,1.54,8.2,8.29.09,8.85-1.13,10.49-8,10.54-6,0-12,.07-18,0-5.67-.07-7.36-1.8-7.5-7.54a47.88,47.88,0,0,1,.1-6c.18-1.86.83-4.24,2.72-4.39,6-.49,4.62-4.72,4.63-8.26q.06-18.49,0-37c0-1.52.58-3.92-2.1-3.5-2.51.39-6.1-2.09-7.41,1.62S15.2,25,11.92,25c-1.84,0-3.67,0-5.5,0-4.14.12-6.24-2-6.34-6C0,14.65,0,10.32.1,6,.23,1.87,2.72.12,6.62,0c2.1,0,4.22.13,4.81,2.56s-1.19,2.94-3,3.84c-4.17,2.12-1.27,6.13-2,9.21-.66,2.78,1,3.3,3.44,3.19,1.78-.07,2.78-.36,2.71-2.46-.09-3.17,2.05-3.76,4.69-3.72,4.16.06,8.33.1,12.5,0,3.44-.1,4.76,1.49,4.73,4.83C34.43,26,34.49,34.48,34.49,43Z"/><path class="cls-1" d="M45.78,0c7.33,0,14.67-.08,22,0,5.43.07,7.14,1.77,7.31,7.22.12,4,.08,8-.06,12C74.9,23,73,25.11,69,25.09c-2.5,0-5,0-7.49-.07s-4.35-1.14-4.82-3.55c-.4-2.07-1.28-2.6-3.29-2.69-6.6-.31-6.59-.41-6.6,6.2,0,11.16,0,22.33,0,33.49,0,2.23.61,5.23-2.84,5.35-3.75.14-3.34-2.94-3.34-5.41,0-13.33.11-26.66-.08-40-.06-4.35,1.49-6.1,5.84-5.8,3.48.24,7,.11,10.49,0,3.08-.06,5.8.11,5.7,4.29-.06,2.88,2.24,1.7,3.65,1.9,1.56.22,2.6-.35,2.46-2.16a8.34,8.34,0,0,1,0-1c.51-9.19.51-9.19-8.55-9.19h-35c-1.17,0-2.34,0-3.5,0-2-.13-3.84-.77-3.92-3C17.66.9,19.57.06,21.79.05,29.78,0,37.78,0,45.78,0Z"/></g></g></svg>