<svg xmlns="http://www.w3.org/2000/svg" viewBox="0 0 87.78 70.85"><defs><style>.cls-1{fill:#fff;}</style></defs><title>자산 8</title><g id="레이어_2" data-name="레이어 2"><g id="레이어_1-2" data-name="레이어 1"><path class="cls-1" d="M53.08.21c7.32,0,14.64-.08,22,0C83.22.34,87.64,4.71,87.7,13q.17,22.46,0,44.93c0,8.52-4.45,12.79-13,12.92-3.66.06-7.32,0-11,0-2,0-3.24-1-3.21-3a3,3,0,0,1,3.21-3.09c3.66-.08,7.32-.13,11,0,4.31.11,6.58-1.79,6.59-6.19V12.54c0-4.41-2.31-6.19-6.61-6.16-14,.07-28,0-41.93,0-1.17,0-2.33,0-3.5,0-2.33,0-4.57-.3-4.5-3.3C24.83.34,27,.22,29.12.22,37.1.2,45.09.21,53.08.21Z"/><path class="cls-1" d="M0,35.17c0-7.32-.08-14.64,0-22C.18,3.9,6.3-1.15,15.48.22c1.85.28,3.29.93,3.29,3s-1.36,2.94-3.21,3.14c-1.15.13-2.33.07-3.49.09-3.68.06-5.55,2.05-5.56,5.62Q6.44,35.51,6.51,59c0,4.24,2.58,5.71,6.54,5.69,11.65-.07,23.3,0,35,0a31.19,31.19,0,0,1,3.49.06c1.89.21,3.18,1.32,3.14,3.23s-1.5,2.86-3.39,2.86c-13.81,0-27.63.15-41.43-.24C4,70.38.22,65.32.08,58.64-.08,50.82,0,43,0,35.17Z"/><path class="cls-1" d="M37.92,43c2.45-.56,4.52-2.27,6.31.17.91,1.24,1,2.65-.13,3.62-2.27,1.94-4.72,3.91-8,3.29-3-.56-4.59-2.71-4.66-5.7-.12-5.82-.31-11.67,0-17.48.3-5.34,4.3-7.39,9.2-4.94s10,5.28,15,8c2.83,1.56,4.86,3.75,3.69,7.27-1.26,3.81-4.78,4.87-8.11,5.89-1.11.34-2.16-.64-2.78-1.74a2.53,2.53,0,0,1,.47-3.21,39.93,39.93,0,0,1,3.56-2.78L37.92,27.52Z"/><path class="cls-1" d="M15.81,13.83c0,2.48-1.57,2.9-3.61,2.87-2.29,0-2.62-1.47-2.59-3.3,0-2,1-2.92,3-2.91C15,10.51,15.91,11.62,15.81,13.83Z"/><path class="cls-1" d="M28.15,14c.09,2.09-1.08,2.77-3.06,2.76-2.33,0-3.24-1.13-3.14-3.36.1-2.06,1.2-2.81,3.17-2.86C27.59,10.43,28.26,11.76,28.15,14Z"/><path class="cls-1" d="M40.81,13.74c.06,2.46-1.44,3-3.52,3-2.24,0-2.71-1.34-2.69-3.21s.81-3,2.95-3S40.89,11.48,40.81,13.74Z"/><path class="cls-1" d="M50.13,16.68c-2.41.1-3.28-1.14-3.18-3.35s1.23-2.79,3.2-2.84c2.48-.06,3.05,1.32,3,3.42S52.07,16.84,50.13,16.68Z"/><path class="cls-1" d="M65.81,13.47c.13,2.3-1,3.23-3.25,3.24-2.09,0-3-.9-3-3,0-1.83.43-3.21,2.68-3.26S65.82,11.07,65.81,13.47Z"/><path class="cls-1" d="M75.13,10.53c2-.18,3,.78,3,2.83s-.61,3.43-3,3.35C73.19,16.64,72,16,72,13.88S72.72,10.41,75.13,10.53Z"/><path class="cls-1" d="M15.81,57.22c.09,2.21-.87,3.31-3.19,3.33-2.08,0-3-.91-3-2.93,0-1.84.33-3.25,2.6-3.28C14.26,54.31,15.83,54.73,15.81,57.22Z"/><path class="cls-1" d="M25.36,60.51c-2.18.16-3.4-.73-3.41-3.06,0-2,.81-3,2.89-3.12s3.41.68,3.34,3.06C28.12,59.28,27.6,60.63,25.36,60.51Z"/><path class="cls-1" d="M37.46,60.51c-2.14.16-2.79-1.08-2.86-3-.09-2.31.93-3.26,3.23-3.16,2,.09,3,1,3,3C40.83,59.62,39.76,60.67,37.46,60.51Z"/><path class="cls-1" d="M53.13,56.93c.15,2.51-.7,3.7-3.1,3.62-2-.07-3-.92-3.08-2.95-.08-2.29,1-3.28,3.23-3.27C52.2,54.34,53.33,55.08,53.13,56.93Z"/><path class="cls-1" d="M62.67,60.51c-2,.18-3-.72-3.07-2.79s.53-3.47,3-3.39c1.91.06,3.15.66,3.21,2.79S65.11,60.61,62.67,60.51Z"/><path class="cls-1" d="M72,57.56c-.15-2.31,1-3.22,3.25-3.23,2.09,0,3,.91,3,3,0,1.84-.44,3.21-2.68,3.26S72,59.94,72,57.56Z"/></g></g></svg>