<svg xmlns="http://www.w3.org/2000/svg" viewBox="0 0 75.41 80.43"><defs><style>.cls-1{fill:#fff;}</style></defs><title>자산 9</title><g id="레이어_2" data-name="레이어 2"><g id="레이어_1-2" data-name="레이어 1"><path class="cls-1" d="M5.62,28c9.81-.18,19.63-.06,29.45-.06s19.63.16,29.44-.07c3.57-.09,4.66,1.08,4.4,4.52s-.09,7,0,10.47c0,2,.58,3.75,3,3.89,2.73.16,3.38-1.8,3.36-3.94-.09-8.48.68-17-.23-25.42-.7-6.5-4.58-10.7-10.89-11.87-1.88-.35-3.52-.33-3.62-3A2.77,2.77,0,0,0,57.26,0a2.67,2.67,0,0,0-2.67,2.52c-.09,2.21-1.3,2.72-3.26,2.71q-13.72-.07-27.45,0c-1.69,0-2.93-.35-3-2.39A2.79,2.79,0,0,0,18,0a2.91,2.91,0,0,0-3.08,2.69c-.21,1.47-.56,2.22-2.23,2.66C2.59,8,.55,11.1,0,22-.16,26.36,1.22,28.06,5.62,28ZM10.7,12.11c1.58-.7,3.3-1.56,4.38,1.2,1,2.48,3.9,3.37,5,.95,1.56-3.54,4-2.78,6.49-2.8q11-.08,22,0c2.65,0,5.31-.73,6.93,2.92,1,2.19,3.83,1.41,4.7-.79,1.13-2.89,2.83-2.29,4.69-1.41,3.32,1.58,4.31,4.49,3.94,7.9-.3,2.71-2.55,1.59-3.94,1.6-9.17.1-18.33.05-27.5.05-9,0-18,.05-27,0-1.39,0-3.58,1-3.79-1.79C6.31,16.43,7.37,13.58,10.7,12.11Z"/><path class="cls-1" d="M72.21,54.62A3,3,0,0,0,69,57.72c-.21,2.48-.07,5-.12,7.48-.13,6.08-2.42,8.49-8.43,8.55-7.48.09-15,0-22.46,0s-15,0-22.47,0c-6.64-.05-8.89-2.34-8.92-9.05,0-8.32,0-16.64,0-25,0-2.15-.51-4.13-3.16-4.21C1,35.46.22,37.23.21,39.2.21,49-.44,58.85.55,68.63c.62,6.06,5,10.73,11,11.07a471.42,471.42,0,0,0,52.36,0c5.09-.28,8.58-3.65,10.26-8.35,1.6-4.45,1.21-9.19.85-13.84A2.83,2.83,0,0,0,72.21,54.62Z"/><path class="cls-1" d="M48.16,59.69a8.28,8.28,0,0,0,16.55-.57,8.28,8.28,0,1,0-16.55.57Z"/><path class="cls-1" d="M37.78,63.39c2.44,0,3.88-1.6,4-4.52a3.75,3.75,0,0,0-4.19-3.56c-2.53.06-4,1.47-4,4.08A3.76,3.76,0,0,0,37.78,63.39Z"/><path class="cls-1" d="M19.06,38.53c-2.57.13-4.15,1.5-4.21,4a3.73,3.73,0,0,0,3.94,4.13c2.57.07,4-1.36,4.12-3.91S21.56,38.79,19.06,38.53Z"/><path class="cls-1" d="M60.64,42.82c-.25-2.39-1.35-4.09-3.93-4.23s-4.1,1.23-4.23,3.79,1.19,4.11,3.76,4.26S60.11,45.22,60.64,42.82Z"/><path class="cls-1" d="M37.79,46.62c2.55,0,3.79-1.63,4-4.12-.32-2.46-1.63-4-4.19-3.9a3.67,3.67,0,0,0-3.9,4.11A3.67,3.67,0,0,0,37.79,46.62Z"/><path class="cls-1" d="M14.84,59.05a3.85,3.85,0,0,0,3.82,4.32,3.71,3.71,0,0,0,4.24-3.81c.18-2.57-1.17-4-3.71-4.3C16.68,55.32,15,56.58,14.84,59.05Z"/></g></g></svg>