<svg xmlns="http://www.w3.org/2000/svg" viewBox="0 0 75.24 84.99"><defs><style>.cls-1{fill:#fff;}</style></defs><title>자산 10</title><g id="레이어_2" data-name="레이어 2"><g id="레이어_1-2" data-name="레이어 1"><path class="cls-1" d="M75.09,22.57c-.12-6.1-2.56-8.39-8.6-8.48-5.26-.08-10.52,0-16.52,0,2-2.37,6.1-3.32,4.21-6.46-2.8-4.64-6,1.09-9.39.45.48-.91.87-1.54,1.17-2.22,1-2.08,1.73-4.39-1-5.53s-3.75.93-4.71,3.09c-.75,1.69-1,3.76-2.66,4.85-3.11-2.32-1.55-9-7-7.89-4.65.91-.56,5-1.25,7.65-2.85-.16-5.76-4.63-8.26-.49-2,3.37,2.3,4.05,3.8,6.22-2.21.55-5,.62-4.49,3.84.45,3,2.94,2.62,5.09,2.64a26.91,26.91,0,0,0,4.49,0c3.8-.59,5.06.93,4.63,4.66-.35,3,1,6.44-4.41,6-6.3-.45-12.65,0-19-.15-1.89,0-5.18,1-4.59-2.56.44-2.74-3.1-7.4,3.11-8a2.84,2.84,0,0,0,2.74-3.47C12.21,15,11,14.31,9.27,14.08c-4.87-.66-8.52,2-9.07,7a46.57,46.57,0,0,0-.13,7C.31,34.6,2.74,37,9.36,37c7.16.06,14.32.12,21.48,0,2.74-.06,3.78.65,3.74,3.59q-.22,17.23,0,34.47c0,3.07-1.25,3.59-3.86,3.51-4.66-.15-9.33-.22-14,0-4.45.22-6.33-1.34-6.17-6,.29-8.32.12-16.66.06-25,0-2.54.8-6.1-3.18-6-3.55.06-2.92,3.38-2.93,5.8q0,12.75,0,25.48C4.55,81.41,8,84.9,16.61,84.94q21,.09,42,0c9.68,0,14.56-6.72,12-16.13-.46-1.68-1.42-2.65-3.15-2.56a2.85,2.85,0,0,0-2.85,2.89,24.3,24.3,0,0,0,0,4c.35,3.86-1.38,5.48-5.22,5.39-5.16-.13-10.33-.12-15.49,0-2.33,0-3.23-.67-3.21-3.12.1-11.82.08-23.65,0-35.47,0-2.12.64-3,2.84-2.95,6,.1,12,.12,18,0,2.42,0,3.16.84,3.11,3.19-.13,5.66,0,11.32,0,17,0,2.19.39,4.16,3.12,4.12s3-2.05,3-4.21c0-5.67,0-11.33,0-17,0-1.28-.63-2.91.57-3.79C76.21,32.7,75.19,27.46,75.09,22.57Zm-9.5,8.23c-7.31,0-14.61.12-21.91,0-5.38-.11-2.36-4.36-3-6.73s.05-4.12,3.26-3.88c3.47.27,7,.06,10.45.06,3.66,0,7.32.21,11-.06s3.65,2.1,3.3,4.43S70.62,30.79,65.59,30.8Z"/></g></g></svg>