<svg xmlns="http://www.w3.org/2000/svg" viewBox="0 0 75.15 75.22"><defs><style>.cls-1{fill:#fff;}</style></defs><title>자산 3</title><g id="레이어_2" data-name="레이어 2"><g id="레이어_1-2" data-name="레이어 1"><path class="cls-1" d="M33.14,45.79c-2.24,2.54-3.83,4.39-5.48,6.19s-3.58,3-5.54.85c-1.72-1.85-.52-3.67,1-5.2C27,43.76,30.85,39.8,34.84,36c1.76-1.66,2.34-3,1.3-5.52C33.8,24.74,35,19.33,39.34,14.83,43,11,46.7,7.09,50.72,3.61a14.81,14.81,0,0,1,20,.58,15.08,15.08,0,0,1,1.77,19.2c-1.23,1.72-2.56,4-5.18,2.45-3-1.73-1.45-3.73-.1-5.84,2.71-4.24,2.11-8.78-1.31-11.71s-8.19-2.72-11.8.62-7.17,7-10.59,10.61c-2.32,2.47-3.09,5.43-1,10.3,2.16-2.76,3.8-5,5.63-7.11,1.37-1.56,3.24-2,4.82-.45s1.06,3.41-.45,4.83c-1.93,1.81-4,3.5-6.7,5.87,4.76,1.77,7.77.84,10.43-1.72,1.65-1.57,3.46-3.26,5.52-1.12,2.28,2.37.33,4.23-1.44,5.86-4.61,4.23-9.92,5.29-15.72,3.09-1.92-.73-3.2-1-4.81.67s-1.59,2.81-.81,4.79c2.39,6,1.16,11.45-3.29,16.09-3.35,3.48-6.72,7-10.27,10.23-6.36,5.86-15.41,5.79-21.14,0s-5.74-14.81.15-21.15c3.05-3.29,6.32-6.39,9.5-9.57,1.55-1.55,3.38-2.59,5.23-.83s.84,3.61-.73,5.17c-3,2.94-5.93,5.85-8.81,8.85C5.38,57.76,5.15,63,8.92,66.57c3.61,3.45,8.66,3.16,12.89-.9,3.25-3.1,6.4-6.32,9.54-9.54C33.87,53.57,34.52,50.57,33.14,45.79Z"/></g></g></svg>