<svg xmlns="http://www.w3.org/2000/svg" viewBox="0 0 75.17 75.05"><defs><style>.cls-1{fill:#fff;}</style></defs><title>자산 2</title><g id="레이어_2" data-name="레이어 2"><g id="레이어_1-2" data-name="레이어 1"><path class="cls-1" d="M68.75,32c0-5.67,0-11.33,0-17,0-7.91-.77-8.69-8.47-8.71-5.66,0-11.33,0-17,0-2.25,0-4.65-.12-4.73-3.11C38.48,0,41,.06,43.19.05c6.67,0,13.33-.12,20,0C70.27.25,74.73,4,74.9,11q.54,21.23,0,42.45c-.17,6.94-4.8,10.88-11.76,10.94-2.9,0-4.81.24-5.87,3.64a9.25,9.25,0,0,1-8.64,6.56c-6.31.33-12.64.34-19,.37-1.95,0-3.86-.72-3.9-3-.06-2.51,1.81-3.35,4-3.36,5.17,0,10.33-.13,15.49,0,4.25.12,6.82-1.6,6.88-6,0-3.63,1.94-4.59,5.11-4.38,1.49.09,3,0,4.5,0,5.25-.12,6.87-1.67,6.93-6.86C68.8,45,68.75,38.46,68.75,32Z"/><path class="cls-1" d="M0,42.62c0-6.17-.08-12.33,0-18.5.14-9.43,4-13.44,13.26-13.66,2.33-.05,3.42-.68,4.31-3C19.75,2.09,23.91-.3,29.31,0c2,.13,3.75.67,3.79,3a2.93,2.93,0,0,1-3.18,3.15c-4.89-.13-7,2.26-7,7,0,2.91-2,3.33-4.45,3.45-12,.6-12,.64-12,12.78,0,10.5,0,21,0,31.49,0,6.57.91,7.48,7.44,7.74a17,17,0,0,1,2.48.13,3,3,0,0,1,2.68,3.14,2.94,2.94,0,0,1-2.81,3C9.21,75.77.83,73.57.3,64.1-.1,57,.22,49.78.22,42.62Z"/><path class="cls-1" d="M47.9,25.39c.57-2.08-1.43-5.6,2.65-6.6,1.43-.35,7,5.55,7.06,7.1s-5.43,7.19-7,7.29C48.48,33.32,47.9,31.75,47.9,25.39Z"/><path class="cls-1" d="M27.3,49.35c-.56,2.1,1.41,5.56-2.52,6.73-1.37.41-7.08-5.36-7.18-7s5.63-7.57,7.3-7.43C26.78,41.86,27.3,43.43,27.3,49.35Z"/><path class="cls-1" d="M41.65,36.19c0,1.93-1,3.15-2.94,3.2a2.77,2.77,0,0,1-3.06-3,2.69,2.69,0,0,1,2.67-2.92A2.84,2.84,0,0,1,41.65,36.19Z"/><path class="cls-1" d="M29.24,19.56c-.18,1.78-1,3-3,3.11a2.7,2.7,0,0,1-3.05-2.53,2.89,2.89,0,0,1,2.66-3.47C27.77,16.45,28.78,17.72,29.24,19.56Z"/><path class="cls-1" d="M54.25,53c-.2,1.87-1.24,3.17-3.09,3.18a2.87,2.87,0,0,1-3-3.17,2.67,2.67,0,0,1,2.75-2.84C52.88,50,53.88,51.13,54.25,53Z"/><path class="cls-1" d="M47.77,45.38a2.59,2.59,0,0,1-2.93,2.25c-2-.06-3.2-1.22-3-3.18a2.9,2.9,0,0,1,3.49-2.74C47,42,47.9,43.19,47.77,45.38Z"/><path class="cls-1" d="M35.49,28c-.22,1.89-1.33,3.12-3.21,3.08a2.69,2.69,0,0,1-2.8-2.87,2.69,2.69,0,0,1,3.08-3C34.3,25.22,35.23,26.27,35.49,28Z"/></g></g></svg>